<svg xmlns="http://www.w3.org/2000/svg" viewBox="0 0 125.9807 99.534">
  <g class="c-interactive-element_chat_item_1" >
    <path class="c-interactive-element_chat_item_1_white" d="M83.8082,50.7735,96.4462,96.7l-2.3541-1.5282-2.7259.64a48.0178,48.0178,0,0,1-10.862,1.239c-13.4434,0-25.1934-5.3484-31.4711-13.2781,22.9838-.6608,41.3832-15.1574,41.3832-32.9992a26.2713,26.2713,0,0,0-.6814-5.72c15.57,2.9943,27.1138,13.2988,27.1138,25.5445,0,7.0624-3.8616,12.3695-7.1243,15.57l-3.4073,3.366,2.127,4.2746a58.4006,58.4006,0,0,0,6.0918,9.5818A42.5394,42.5394,0,0,1,96.4462,96.7Z" transform="translate(-4.5096 -17.733)"/>
    <path class="c-interactive-element_chat_item_1_oultine" d="M40.9175,83.4216c6.5049,11.8739,21.7861,20.2373,39.6073,20.2373a54.661,54.661,0,0,0,12.3489-1.4042,47.58,47.58,0,0,0,25.8542,8.0123,4.78,4.78,0,0,0,3.4693-8.0536h0a52.5564,52.5564,0,0,1-7.8265-11.337c5.6788-5.5963,9.0861-12.6174,9.0861-20.2786,0-16.52-15.7975-30.17-36.3858-32.6069L83.8082,50.7735c0,14.5791-16.3137,26.4324-36.3445,26.4324ZM96.4462,96.7l-2.3541-1.5282-2.7259.64a48.0178,48.0178,0,0,1-10.862,1.239c-13.4434,0-25.1934-5.3484-31.4711-13.2781,22.9838-.6608,41.3832-15.1574,41.3832-32.9992a26.2713,26.2713,0,0,0-.6814-5.72c15.57,2.9943,27.1138,13.2988,27.1138,25.5445,0,7.0624-3.8616,12.3695-7.1243,15.57l-3.4073,3.366,2.127,4.2746a58.4006,58.4006,0,0,0,6.0918,9.5818A42.5394,42.5394,0,0,1,96.4462,96.7Z" transform="translate(-4.5096 -17.733)"/>
    <path class="c-interactive-element_chat_item_1_hover" d="M83.8082,50.7735,96.4462,96.7l-2.3541-1.5282-2.7259.64a48.0178,48.0178,0,0,1-10.862,1.239c-13.4434,0-25.1934-5.3484-31.4711-13.2781,22.9838-.6608,41.3832-15.1574,41.3832-32.9992a26.2713,26.2713,0,0,0-.6814-5.72c15.57,2.9943,27.1138,13.2988,27.1138,25.5445,0,7.0624-3.8616,12.3695-7.1243,15.57l-3.4073,3.366,2.127,4.2746a58.4006,58.4006,0,0,0,6.0918,9.5818A42.5394,42.5394,0,0,1,96.4462,96.7Z" transform="translate(-4.5096 -17.733)"/>
  </g>
  <g class="c-interactive-element_chat_item_2">
    <path class="c-interactive-element_chat_item_2_oultine" d="M49.0331,83.7727c22.9838-.6608,41.3832-15.1574,41.3832-32.9992a26.2713,26.2713,0,0,0-.6814-5.72L87.071,37.9909C80.5868,26.0964,65.2849,17.733,47.4637,17.733c-23.7272,0-42.9527,14.7856-42.9527,33.04,0,7.6406,3.4073,14.6617,9.0862,20.2786A54.0707,54.0707,0,0,1,5.812,82.3891a4.78,4.78,0,0,0,3.4693,8.0536A47.4671,47.4671,0,0,0,35.1355,82.43a51.9245,51.9245,0,0,0,5.782.9912ZM36.6016,75.9669l-2.7258-.62-2.3542,1.5282a42.5236,42.5236,0,0,1-18.11,6.7113,57.4469,57.4469,0,0,0,6.0919-9.5817L21.6508,69.71l-3.4073-3.366c-3.2628-3.2008-7.1244-8.5079-7.1244-15.57,0-14.5791,16.3138-26.4324,36.3446-26.4324S83.8082,36.1944,83.8082,50.7735,67.4945,77.2059,47.4637,77.2059A48.0193,48.0193,0,0,1,36.6016,75.9669Z" transform="translate(-4.5096 -17.733)"/>
    <path class="c-interactive-element_chat_item_2_white" d="M36.6016,75.9669l-2.7258-.62-2.3542,1.5282a42.5236,42.5236,0,0,1-18.11,6.7113,57.4469,57.4469,0,0,0,6.0919-9.5817L21.6508,69.71l-3.4073-3.366c-3.2628-3.2008-7.1244-8.5079-7.1244-15.57,0-14.5791,16.3138-26.4324,36.3446-26.4324S83.8082,36.1944,83.8082,50.7735,67.4945,77.2059,47.4637,77.2059A48.0193,48.0193,0,0,1,36.6016,75.9669Z" transform="translate(-4.5096 -17.733)"/>
    <path class="c-interactive-element_chat_item_2_hover" d="M36.6016,75.9669l-2.7258-.62-2.3542,1.5282a42.5236,42.5236,0,0,1-18.11,6.7113,57.4469,57.4469,0,0,0,6.0919-9.5817L21.6508,69.71l-3.4073-3.366c-3.2628-3.2008-7.1244-8.5079-7.1244-15.57,0-14.5791,16.3138-26.4324,36.3446-26.4324S83.8082,36.1944,83.8082,50.7735,67.4945,77.2059,47.4637,77.2059A48.0193,48.0193,0,0,1,36.6016,75.9669Z" transform="translate(-4.5096 -17.733)"/>
  </g>
</svg>
