<svg id="heart" xmlns="http://www.w3.org/2000/svg" viewBox="0 0 100.5565 114.9217">
  <path id="c-interactive-element_clock_cricle" d="M96.9053,33.16A50.1,50.1,0,0,0,67.3444,20.9941l-7.1826.0449a50.2873,50.2873,0,1,0,41.8387,17.2158ZM64,114.2783a43.0957,43.0957,0,1,1,43.0956-43.0957A43.0781,43.0781,0,0,1,64,114.2783Z" transform="translate(-13.7217 -6.5391)"/>
  <line class="c-interactive-element_clock_hand" x1="50.2783" y1="38.3072" x2="50.2783" y2="76.6145"/>
  <path class="c-interactive-element_clock_top" d="M67.3669,20.9941V13.7217h5.6114a2.7013,2.7013,0,0,0,2.6934-2.6934V9.2326a2.7014,2.7014,0,0,0-2.6934-2.6935H55.0217a2.7014,2.7014,0,0,0-2.6934,2.6935v1.7957a2.7013,2.7013,0,0,0,2.6934,2.6934h5.1625V21.039Z" transform="translate(-13.7217 -6.5391)"/>
  <line class="c-interactive-element_clock_button" x1="91.6197" y1="23.385" x2="83.7966" y2="31.2081"/>
</svg>
