<svg xmlns="http://www.w3.org/2000/svg" viewBox="0 0 126.0245 110.272">
    <path id="c-interactive-element_heart_icon_inner" class="cls-1" d="M63.9913,24.7645m47.5551,37.34L64.09,111.2841l-47.6535-49.18C6.9844,52.3572,5.0152,33.7733,18.3316,22.4261c13.4887-11.52,29.34-3.1753,35.1494,2.8307l10.51,10.8549,10.51-10.8549c5.71-5.9075,21.71-14.2764,35.1494-2.8307,13.2917,11.3226,11.3472,29.9065,1.8953,39.6784Z" transform="translate(-0.9755 -8.8641)"/>
    <path id="c-interactive-element_heart_icon" class="cls-2" d="M114.7708,16.42C101.356,4.9991,81.2953,6.8944,68.84,19.7431l-4.8491,5.0214-4.849-4.9967C49.1,9.3805,28.842,3.1284,13.2118,16.42A35.3163,35.3163,0,0,0,10.775,67.5689l47.6289,49.18a7.7451,7.7451,0,0,0,5.5628,2.3876,7.6482,7.6482,0,0,0,5.5629-2.3876l47.6288-49.18A35.2725,35.2725,0,0,0,114.7708,16.42Zm-3.2244,45.6843L64.09,111.2841l-47.6535-49.18C6.9844,52.3572,5.0152,33.7733,18.3316,22.4261c13.4887-11.52,29.34-3.1753,35.1494,2.8307l10.51,10.8549,10.51-10.8549c5.71-5.9075,21.71-14.2764,35.1494-2.8307,13.2917,11.3226,11.3472,29.9065,1.8953,39.6784Z" transform="translate(-0.9755 -8.8641)"/>
</svg>
